<svg width="128" height="128" viewBox="0 0 128 128" fill="none" xmlns="http://www.w3.org/2000/svg">
<rect width="128" height="128" fill="#9E2A3A"/>
<path d="M19.0653 54.8226V51.8115H16V47.9883H19.7465V51.0333H28.2612V45.7891H19.0653V42.7779H16V36.0112H19.0653V33H28.9423V36.0112H32.0417V39.8005H28.2612V36.8232H19.7465V42.0336H28.9423V44.9771H32.0417V51.8115H28.9423V54.8226H19.0653Z" fill="white"/>
<path d="M41.9618 54.8226V36.8232H39.5777V39.8005H35.8313V36.0112H38.8966V33H48.7736V36.0112H51.8729V39.8005H48.0924V36.8232H45.7083V54.8226H41.9618Z" fill="white"/>
<path d="M61.0946 54.8226V42.7779H58.0293V39.8005H54.964V33H58.7105V38.9885H61.7417V42.0336H64.194V38.9885H67.2252V33H71.0057V39.8005H67.9064V42.7779H64.8411V54.8226H61.0946Z" fill="white"/>
<path d="M77.8606 54.8226V51.8115H74.7953V33H78.5418V51.0333H87.0565V47.9883H90.837V51.8115H87.7376V54.8226H77.8606Z" fill="white"/>
<path d="M98.3571 54.8226V51.8115H95.2918V36.0112H98.3571V33H108.234V36.0112H111.333V39.8005H107.553V36.8232H99.0382V42.0336H105.169V45.7891H99.0382V51.0333H107.553V47.9883H111.333V51.8115H108.234V54.8226H98.3571Z" fill="white"/>
<path d="M16 95V73.1774H28.9423V76.1885H32.0417V79.9779H28.2612V77.0005H19.7465V82.2109H25.877V85.9664H19.7465V95H16Z" fill="white"/>
<path d="M38.556 95V91.9888H35.4907V76.1885H38.556V73.1774H48.433V76.1885H51.5324V91.9888H48.433V95H38.556ZM39.2371 91.2106H47.7518V77.0005H39.2371V91.2106Z" fill="white"/>
<path d="M55.6466 95V76.1885H58.7118V73.1774H68.5889V76.1885H71.6882V85.9664H68.5889V88.9776H67.0903V91.2106H70.1215V95H66.4091V91.9888H63.3098V88.9776H59.393V95H55.6466ZM59.393 85.1544H67.9077V77.0005H59.393V85.1544Z" fill="white"/>
<path d="M78.8677 95V91.9888H75.8024V76.1885H78.8677V73.1774H88.7448V76.1885H91.8441V82.9553H88.0636V77.0005H79.5489V91.2106H88.0636V88.9776H85.0324V85.9664H81.933V82.2109H85.6795V85.1544H91.8441V91.9888H88.7448V95H78.8677Z" fill="white"/>
<path d="M99.0236 95V91.9888H95.9583V76.1885H99.0236V73.1774H108.901V76.1885H112V79.9779H108.219V77.0005H99.7048V82.2109H105.835V85.9664H99.7048V91.2106H108.219V88.1656H112V91.9888H108.901V95H99.0236Z" fill="white"/>
</svg>
